<svg width="99" height="28" viewBox="0 0 99 28" fill="none" xmlns="http://www.w3.org/2000/svg">
<path fill-rule="evenodd" clip-rule="evenodd" d="M18.0513 13.5119C16.75 12.1846 15.4036 10.9193 14.0535 9.65002C13.6154 9.23813 13.1985 8.94446 12.5595 8.94446C12.0158 8.94446 11.3388 9.20697 10.9182 9.65002C10.4823 10.1092 10.1315 10.7118 10.091 11.3534C10.0596 11.849 10.1239 12.4339 10.3839 12.8384C8.64783 12.9532 6.91108 13.0783 5.17636 13.1907C4.27548 13.2491 3.37491 13.302 2.4737 13.367C1.31034 13.4509 0.0912548 14.4148 0.00526229 15.7759C-0.0727085 17.009 0.72208 18.2749 1.97068 18.1848C4.80159 17.9806 7.63218 17.8023 10.4618 17.6325C10.3025 17.7798 10.1433 17.9271 9.98414 18.0744C9.04774 18.9405 8.85394 20.6188 9.6284 21.481C10.4405 22.3853 11.7648 22.4051 12.7637 21.481C14.4076 19.9603 16.0516 18.4395 17.6955 16.9186C18.6038 16.0785 18.8609 14.3378 18.0513 13.5119" fill="#6F3EA9"/>
<path d="M33.7216 3.855C34.8261 3.00087 35.9988 2.27167 37.5233 3.06008C38.9737 3.81017 39.1047 5.11041 39.0321 6.46242C39.0175 6.73198 39.0228 7.00365 39.0155 7.48293C38.4492 13.4495 37.6684 19.1064 36.5926 25.1968C36.4549 25.9772 36.3155 26.8028 35.6024 27.3355C32.7846 28.5161 31.9935 25.6319 32.0585 23.7896C32.3862 19.4339 26.0258 21.6555 22.0731 26.6099C21.2193 27.7471 19.5495 27.7195 18.8446 27.1529C18.1193 26.5694 17.9975 24.8252 18.2928 24.1568C19.8991 20.5231 23.0307 16.8216 25.2723 13.5552C27.428 10.4141 29.8755 7.48978 32.6249 4.81496C32.9719 4.47723 33.337 4.15241 33.7216 3.855ZM33.118 12.4566C32.4494 12.1315 31.971 12.63 31.5272 12.9956C30.8588 13.5464 30.3252 14.2231 29.9823 15.0083C29.6414 15.7887 29.2221 16.6484 30.4657 17.1743C31.6179 17.6612 32.8547 17.1909 33.1473 16.1304C33.3446 15.4157 33.4275 14.6668 33.5311 14.0982C33.4821 13.4084 33.7625 12.7702 33.118 12.4566Z" fill="white"/>
<path fill-rule="evenodd" clip-rule="evenodd" d="M60.7102 1.79806C59.2244 1.18748 57.9385 1.74588 57.2703 3.29206C56.7924 4.39756 55.3684 9.85977 54.5449 12.9805C53.4147 17.2641 50.4798 5.93574 49.2467 3.7678C48.5186 2.48767 47.5479 1.8225 46.3618 1.79104C46.3552 1.79082 46.3487 1.79071 46.3422 1.79049C44.6544 1.75728 44.0412 3.24032 43.8393 3.72889C42.9909 6.11398 39.5441 23.3496 39.4993 23.865C39.4813 24.0726 38.9093 27.3434 41.8176 27.6085C43.4933 27.6584 44.1655 26.9872 44.4996 25.6704C44.6793 24.9616 46.7545 14.5984 46.7803 14.4935C48.0772 9.3268 49.3331 26.5874 54.231 26.9025C56.4916 27.1544 57.4705 25.0413 57.7732 24.3887C58.5319 22.7528 61.6773 9.85911 62.2505 5.41505C62.4686 3.72341 62.2179 2.41773 60.7102 1.79806" fill="white"/>
<path fill-rule="evenodd" clip-rule="evenodd" d="M75.6123 12.5446C75.3807 10.5053 73.2382 8.00866 71.2344 7.33755C70.2992 7.02438 69.7875 7.36826 69.5945 8.17022C68.7601 11.6365 67.9286 15.1046 67.1851 18.5944C66.9227 19.8259 67.6069 20.4142 68.7878 20.0051C71.3273 19.1255 73.5167 17.7427 74.9196 15.4079C75.4368 14.5471 75.7539 13.6034 75.6123 12.5446M68.0064 25.9621C61.6148 26.4079 60.55 25.3554 61.3797 20.7164C62.392 15.0573 63.7357 9.47556 65.2211 3.94082C66.0607 0.812802 67.3533 0.228638 70.6257 1.21778C75.678 2.74491 79.3573 5.73364 80.8833 10.9108C81.6288 13.44 81.2186 15.8155 79.8522 17.9372C76.7397 22.7701 72.3634 25.6995 68.0064 25.9621" fill="white"/>
<path fill-rule="evenodd" clip-rule="evenodd" d="M93.5633 8.79118C93.5382 8.74794 93.3986 8.48849 93.2395 8.23621C92.974 7.81578 92.6537 7.38593 91.7917 7.4585C90.8109 7.54124 90.3842 8.10788 90.1065 8.62239C88.6168 11.3825 88.3359 14.0548 89.0869 16.629C89.2039 17.0294 89.4594 17.5013 90.2693 17.444C91.0505 17.3888 91.4884 16.8968 91.797 16.4715C93.625 13.9529 94.5003 11.4549 93.5633 8.79118M83.626 16.6539C83.485 11.1225 85.1095 5.91764 89.0778 1.67898C91.3176 -0.713228 92.9018 -0.260688 95.1671 1.24282C98.5701 3.50124 99.2461 6.32747 98.9305 9.7304C98.5422 13.9178 97.6964 17.9827 95.2585 21.4588C93.8258 23.5017 92.1618 25.4413 89.1682 24.7442C86.0468 24.0174 84.7411 21.5923 84.0106 18.8004C83.8556 18.2078 83.7916 17.5962 83.626 16.6539" fill="white"/>
</svg>
